<svg width="86" height="33" viewBox="0 0 86 33" fill="none" xmlns="http://www.w3.org/2000/svg">
<g clip-path="url(#clip0_429_24569)">
<path d="M45.9192 9.67846C45.9192 9.90384 45.8747 10.127 45.7883 10.3351C45.7018 10.5433 45.5751 10.7323 45.4154 10.8913C45.2557 11.0503 45.0662 11.1763 44.8577 11.2619C44.6492 11.3475 44.4258 11.391 44.2005 11.3901C43.9751 11.3909 43.7519 11.3473 43.5435 11.2617C43.3351 11.176 43.1456 11.0501 42.986 10.891C42.8264 10.732 42.6997 10.543 42.6133 10.335C42.5269 10.1269 42.4824 9.90378 42.4824 9.67846C42.4801 9.45251 42.523 9.22837 42.6086 9.01925C42.6943 8.81012 42.8208 8.62023 42.9809 8.46075C43.141 8.30126 43.3313 8.17541 43.5408 8.09058C43.7502 8.00576 43.9745 7.96368 44.2005 7.96682C45.179 7.99313 45.9192 8.75615 45.9192 9.67846ZM38.8337 13.1288V13.5505C38.8337 13.5505 38.0145 12.4959 36.2702 12.4959C33.3887 12.4959 31.1409 14.6826 31.1409 17.7112C31.1409 20.7135 33.3624 22.9258 36.2702 22.9258C38.0408 22.9258 38.8337 21.8463 38.8337 21.8463V22.2936C38.8337 22.5041 38.993 22.6619 39.2042 22.6619H41.3446V12.759H39.2042C39.1069 12.7613 39.0142 12.8011 38.9453 12.8699C38.8765 12.9387 38.8368 13.0314 38.8344 13.1288H38.8337ZM38.8337 19.4754C38.4376 20.055 37.6447 20.5556 36.6933 20.5556C35.0008 20.5556 33.7052 19.5025 33.7052 17.7112C33.7052 15.9199 35.0015 14.8667 36.6933 14.8667C37.6177 14.8667 38.4639 15.393 38.8337 15.9462V19.4754ZM42.9318 12.7597H45.4691V22.6626H42.9318V12.7597ZM80.8412 12.4966C79.0961 12.4966 78.2762 13.5498 78.2762 13.5498V7.99313H75.739V22.6626H77.8801C77.9774 22.6606 78.0702 22.6211 78.1391 22.5524C78.208 22.4836 78.2477 22.3909 78.2499 22.2936V21.8456C78.2499 21.8456 79.0698 22.9265 80.8142 22.9265C83.6956 22.9265 85.9427 20.7149 85.9427 17.7119C85.9427 14.7089 83.6956 12.4959 80.8412 12.4959V12.4966ZM80.4181 20.5293C79.4396 20.5293 78.673 20.0294 78.2762 19.4491V15.9199C78.673 15.3937 79.5192 14.8404 80.4181 14.8404C82.1098 14.8404 83.4047 15.8936 83.4047 17.6849C83.4047 19.4754 82.1098 20.5293 80.4181 20.5293ZM74.417 16.7896V22.689H71.879V17.079C71.879 15.4463 71.35 14.7878 69.9235 14.7878C69.1569 14.7878 68.364 15.1825 67.8613 15.762V22.6626H65.3233V12.7597H67.3322C67.5434 12.7597 67.702 12.9446 67.702 13.1288V13.5505C68.4422 12.786 69.4207 12.4959 70.3985 12.4959C71.5093 12.4959 72.4344 12.8123 73.1747 13.4445C74.0728 14.1819 74.417 15.1298 74.417 16.7896ZM59.1637 12.4959C57.4186 12.4959 56.5994 13.5498 56.5994 13.5498V7.99313H54.0607V22.6626H56.2026C56.3 22.6608 56.3929 22.6214 56.4618 22.5526C56.5307 22.4838 56.5704 22.391 56.5724 22.2936V21.8456C56.5724 21.8456 57.3923 22.9265 59.1366 22.9265C62.0188 22.9265 64.2652 20.7149 64.2652 17.7119C64.2915 14.7089 62.0451 12.4959 59.163 12.4959H59.1637ZM58.7398 20.5293C57.7621 20.5293 56.9955 20.0294 56.5994 19.4491V15.9199C56.9955 15.3937 57.8417 14.8404 58.7398 14.8404C60.4323 14.8404 61.7272 15.8936 61.7272 17.6849C61.7272 19.4754 60.433 20.5293 58.7406 20.5293H58.7398ZM51.867 12.4959C52.6335 12.4959 53.0303 12.6281 53.0303 12.6281V14.972C53.0303 14.972 50.9155 14.2609 49.5935 15.762V22.6882H47.0549V12.7597H49.1967C49.4086 12.7597 49.5665 12.9446 49.5665 13.1281V13.5498C50.043 12.9965 51.0741 12.4959 51.867 12.4959ZM25.5103 21.7674C25.3788 21.4509 25.2472 21.1089 25.1142 20.8187C24.9023 20.3451 24.6911 19.8971 24.5062 19.4754L24.4799 19.4491C22.6287 15.4346 20.6806 11.4654 18.6374 7.54513L18.5592 7.38726C18.342 6.97746 18.1303 6.56474 17.9242 6.14922C17.6597 5.67491 17.3951 5.17499 16.972 4.70068C16.1258 3.64682 14.9098 3.06726 13.6156 3.06726C12.2929 3.06726 11.1039 3.64682 10.2314 4.64735C9.8346 5.12166 9.54375 5.62157 9.27993 6.09588C9.07371 6.51117 8.8618 6.92433 8.64562 7.33393L8.56598 7.49251C6.53078 11.4427 4.5482 15.4456 2.7242 19.3965L2.69718 19.4484C2.51229 19.8708 2.30038 20.3181 2.08918 20.7924C1.94766 21.1046 1.81611 21.4203 1.69309 21.7403C1.34891 22.7146 1.24295 23.6362 1.37593 24.5848C1.51857 25.5496 1.91069 26.4606 2.51347 27.2273C3.11626 27.9941 3.90882 28.5903 4.81273 28.9567C5.49966 29.2468 6.21362 29.3784 6.95318 29.3784C7.16509 29.3784 7.42962 29.3521 7.64082 29.3258C8.57334 29.2076 9.47252 28.9029 10.2847 28.4298C11.3692 27.8246 12.3996 26.9556 13.563 25.692C14.7256 26.9556 15.783 27.8246 16.8412 28.4298C17.8545 29.0199 18.9998 29.3461 20.172 29.3784C20.9123 29.3784 21.6526 29.2468 22.3125 28.9567C24.1642 28.2186 25.4591 26.5339 25.75 24.5848C25.9598 23.6632 25.8545 22.7416 25.5103 21.7674ZM13.5886 23.1362C12.1606 21.3457 11.2348 19.6603 10.9183 18.2381C10.7868 17.6322 10.7598 17.1053 10.8401 16.631C10.8913 16.2342 11.0364 15.8559 11.2625 15.5252C11.7646 14.8141 12.6108 14.3661 13.5886 14.3661C14.567 14.3661 15.4396 14.7878 15.9153 15.5252C16.1272 15.841 16.2851 16.21 16.3384 16.6317C16.4174 17.106 16.391 17.6586 16.2602 18.2388C15.9409 19.634 15.0158 21.3194 13.5886 23.1362ZM24.1358 24.3743C23.9509 25.7439 23.0264 26.9293 21.7308 27.4562C21.0958 27.7194 20.4081 27.7983 19.7212 27.7194C19.0606 27.6397 18.3992 27.4292 17.7123 27.0346C16.7608 26.5076 15.8094 25.6913 14.6986 24.4795C16.4437 22.3462 17.5004 20.3978 17.8972 18.6598C18.0694 17.9262 18.1142 17.1685 18.0294 16.4198C17.9315 15.7763 17.6875 15.1638 17.3162 14.6292C16.4956 13.4438 15.121 12.759 13.5886 12.759C12.0554 12.759 10.6801 13.4701 9.86091 14.6292C9.4893 15.164 9.24507 15.7767 9.14695 16.4205C9.03527 17.168 9.08031 17.9306 9.27922 18.6598C9.67531 20.397 10.7598 22.3725 12.4778 24.5058C11.3941 25.7176 10.4156 26.5339 9.46411 27.0609C8.77646 27.4562 8.11584 27.6667 7.45522 27.7457C6.77393 27.8215 6.08441 27.7313 5.44562 27.4826C4.1514 26.9563 3.22695 25.7702 3.04206 24.4006C2.95473 23.7069 3.03621 23.0024 3.27958 22.3469C3.3578 22.0831 3.49078 21.82 3.62304 21.5042C3.80793 21.0826 4.01913 20.6346 4.23104 20.1866L4.25735 20.1346C6.10496 16.1487 8.04396 12.2057 10.0728 8.30886L10.1525 8.15099C10.3644 7.75633 10.5756 7.33464 10.7868 6.93926C10.9987 6.51757 11.2362 6.12291 11.527 5.78015C12.0817 5.14868 12.822 4.80593 13.6419 4.80593C14.4618 4.80593 15.2021 5.14868 15.7567 5.78015C16.0483 6.12362 16.2858 6.51899 16.497 6.93926C16.7089 7.33464 16.9201 7.75633 17.1313 8.15099L17.211 8.30886C19.2156 12.2226 21.1459 16.174 23.0008 20.161V20.1873C23.212 20.609 23.3969 21.0833 23.6088 21.505C23.7404 21.82 23.8734 22.0831 23.9523 22.3469C24.1635 23.031 24.2424 23.6895 24.1372 24.3743H24.1358Z" fill="#8F95B3"/>
</g>
<defs>
<clipPath id="clip0_429_24569">
<rect width="85.3333" height="32" fill="white" transform="translate(0.609192 0.934082)"/>
</clipPath>
</defs>
</svg>
